<svg width="437" height="475" viewBox="0 0 437 475" fill="none" xmlns="http://www.w3.org/2000/svg">
<path fill-rule="evenodd" clip-rule="evenodd" d="M232.963 4.04319C106.099 6.46067 4 110.057 4 237.5C4 238.041 4.00184 238.582 4.00552 239.123H141.336C141.323 238.596 141.311 238.069 141.3 237.542C141.299 237.514 141.299 237.486 141.3 237.458C143.098 151.174 175.632 68.4181 232.963 4.04319ZM242.036 4.04317C299.367 68.4181 331.902 151.174 333.699 237.458C333.7 237.486 333.7 237.514 333.699 237.542C333.688 238.069 333.676 238.596 333.663 239.123H470.995C470.998 238.582 471 238.041 471 237.5C471 110.057 368.901 6.46012 242.036 4.04317ZM329.661 239.123C329.675 238.582 329.688 238.041 329.699 237.5C327.896 151.41 295.151 68.8728 237.5 4.97548C179.848 68.8728 147.103 151.41 145.3 237.5C145.311 238.041 145.324 238.582 145.338 239.123H329.661ZM145.462 243.123H329.537C326.457 327.179 293.895 407.52 237.5 470.025C181.104 407.52 148.542 327.179 145.462 243.123ZM141.459 243.123H4.06637C7.0169 367.977 107.97 468.575 232.963 470.957C176.87 407.971 144.513 327.389 141.459 243.123ZM242.036 470.957C298.129 407.971 330.486 327.389 333.54 243.123H470.934C467.983 367.977 367.03 468.576 242.036 470.957ZM0 241.123C0 241.02 0.00776317 240.919 0.0227352 240.82C0.00759479 239.715 0 238.609 0 237.5C0 106.332 106.332 0 237.5 0C368.668 0 475 106.332 475 237.5C475 238.609 474.993 239.715 474.977 240.82C474.992 240.919 475 241.02 475 241.123C475 241.247 474.989 241.368 474.967 241.485C472.84 370.815 367.337 475 237.5 475C107.663 475 2.16053 370.815 0.0327612 241.485C0.011242 241.368 0 241.247 0 241.123Z" fill="url(#paint0_linear)"/>
<defs>
<linearGradient id="paint0_linear" x1="-39.3069" y1="2.88006" x2="485.692" y2="446.204" gradientUnits="userSpaceOnUse">
<stop stop-color="#FF7A00"/>
<stop offset="1" stop-color="#DB00FF"/>
</linearGradient>
</defs>
</svg>
