<svg width="80" height="80" viewBox="0 0 80 80" fill="none" xmlns="http://www.w3.org/2000/svg">
<path fill-rule="evenodd" clip-rule="evenodd" d="M13.3327 11.5239C10.7554 11.5239 8.66602 13.6133 8.66602 16.1906V49.5239C8.66602 52.1013 10.7554 54.1906 13.3327 54.1906H39.9993H66.666C69.2433 54.1906 71.3327 52.1013 71.3327 49.5239V16.1906C71.3327 13.6133 69.2433 11.5239 66.666 11.5239H13.3327ZM41.9993 58.1906H66.666C71.4525 58.1906 75.3327 54.3104 75.3327 49.5239V16.1906C75.3327 11.4041 71.4525 7.52393 66.666 7.52393H13.3327C8.54621 7.52393 4.66602 11.4041 4.66602 16.1906V49.5239C4.66602 54.3104 8.54621 58.1906 13.3327 58.1906H37.9993V67.5239H26.666C25.5614 67.5239 24.666 68.4194 24.666 69.5239C24.666 70.6285 25.5614 71.5239 26.666 71.5239H39.9993H53.3327C54.4373 71.5239 55.3327 70.6285 55.3327 69.5239C55.3327 68.4194 54.4373 67.5239 53.3327 67.5239H41.9993V58.1906Z" fill="url(#paint0_linear)"/>
<defs>
<linearGradient id="paint0_linear" x1="4.25526" y1="7.99283" x2="75.6471" y2="74.5578" gradientUnits="userSpaceOnUse">
<stop stop-color="#FF7A00"/>
<stop offset="1" stop-color="#DB00FF"/>
</linearGradient>
</defs>
</svg>
