<svg width="361" height="361" viewBox="0 0 361 361" fill="none" xmlns="http://www.w3.org/2000/svg">
<path fill-rule="evenodd" clip-rule="evenodd" d="M59.1045 98.6142C43.3079 121.987 34.0835 150.166 34.0835 180.5C34.0835 200.399 38.0531 219.371 45.2436 236.667H138.825L107.615 182.621C107.567 182.543 107.522 182.465 107.479 182.385L59.1045 98.6142ZM162.715 333.903C107.279 327.546 60.7694 291.832 39.1219 242.699C38.9586 242.422 38.8276 242.125 38.7341 241.811C30.5948 223.016 26.0835 202.285 26.0835 180.5C26.0835 146.407 37.1321 114.895 55.844 89.3484C56.0447 88.9503 56.3131 88.5831 56.6442 88.2658C84.7964 50.5232 129.794 26.0833 180.5 26.0833C186.173 26.0833 191.775 26.3892 197.29 26.9855C197.622 26.9805 197.957 27.0168 198.286 27.0965C253.722 33.454 300.233 69.1688 321.88 118.304C322.042 118.579 322.172 118.874 322.265 119.186C330.405 137.981 334.917 158.714 334.917 180.5C334.917 214.593 323.868 246.105 305.156 271.651C304.956 272.049 304.687 272.417 304.356 272.734C276.204 310.477 231.206 334.917 180.5 334.917C174.827 334.917 169.225 334.611 163.71 334.014C163.378 334.019 163.044 333.983 162.715 333.903ZM170.265 326.564C173.646 326.798 177.059 326.917 180.5 326.917C227.882 326.917 270.007 304.41 296.768 269.504L249.992 188.5L170.265 326.564ZM253.522 178.616C253.479 178.536 253.433 178.456 253.385 178.378L222.176 124.333H315.757C322.947 141.629 326.917 160.601 326.917 180.5C326.917 210.834 317.692 239.013 301.896 262.386L253.522 178.616ZM245.373 180.502L212.939 236.667H148.063L115.628 180.498L148.061 124.333H212.938L245.373 180.502ZM208.32 244.667L161.527 325.699C111.858 319.272 69.9955 287.955 48.856 244.667H145.688C145.734 244.667 145.78 244.667 145.826 244.667H208.32ZM64.2319 91.4958L111.009 172.499L190.736 34.4355C187.354 34.2019 183.941 34.0833 180.5 34.0833C133.118 34.0833 90.9929 56.59 64.2319 91.4958ZM215.17 116.333H152.681L199.474 35.3014C249.142 41.7281 291.005 73.0445 312.144 116.333H215.316C215.292 116.333 215.267 116.333 215.243 116.333C215.219 116.333 215.194 116.333 215.17 116.333Z" fill="url(#paint0_linear)"/>
<defs>
<linearGradient id="paint0_linear" x1="24.2884" y1="28.3459" x2="364.757" y2="315.847" gradientUnits="userSpaceOnUse">
<stop stop-color="#FF7A00"/>
<stop offset="1" stop-color="#DB00FF"/>
</linearGradient>
</defs>
</svg>
