<svg width="466" height="466" viewBox="0 0 466 466" fill="none" xmlns="http://www.w3.org/2000/svg">
<path fill-rule="evenodd" clip-rule="evenodd" d="M37.8135 232.41C37.8135 127.153 123.141 41.8252 228.398 41.8252C333.655 41.8252 418.983 127.153 418.983 232.41C418.983 337.667 333.655 422.995 228.398 422.995C123.141 422.995 37.8135 337.667 37.8135 232.41ZM228.398 35.8252C119.827 35.8252 31.8135 123.839 31.8135 232.41C31.8135 340.981 119.827 428.995 228.398 428.995C336.969 428.995 424.983 340.981 424.983 232.41C424.983 123.839 336.969 35.8252 228.398 35.8252ZM149.165 268.727C150.49 267.734 152.37 268.002 153.364 269.326L153.365 269.327L153.375 269.34C153.385 269.354 153.403 269.376 153.427 269.408C153.475 269.471 153.552 269.569 153.655 269.7C153.863 269.962 154.181 270.356 154.606 270.862C155.456 271.875 156.735 273.338 158.425 275.101C161.806 278.629 166.815 283.345 173.298 288.06C186.276 297.498 205.028 306.844 228.399 306.844C251.771 306.844 270.523 297.498 283.5 288.06C289.983 283.345 294.993 278.629 298.374 275.101C300.063 273.338 301.343 271.875 302.193 270.862C302.618 270.356 302.936 269.962 303.143 269.7C303.247 269.569 303.323 269.471 303.372 269.408L303.401 269.37L303.423 269.34L303.433 269.327L303.434 269.327L303.434 269.326C304.429 268.002 306.308 267.734 307.633 268.727C308.959 269.721 309.227 271.602 308.233 272.927L305.833 271.127C308.233 272.927 308.232 272.928 308.232 272.93L308.229 272.933L308.222 272.942L308.201 272.971C308.183 272.994 308.158 273.027 308.125 273.069C308.061 273.153 307.968 273.272 307.848 273.424C307.606 273.729 307.252 274.167 306.789 274.72C305.862 275.824 304.495 277.386 302.706 279.253C299.13 282.984 293.855 287.948 287.029 292.912C273.389 302.832 253.424 312.844 228.399 312.844C203.375 312.844 183.41 302.832 169.769 292.912C162.943 287.948 157.668 282.984 154.093 279.253C152.304 277.386 150.936 275.824 150.01 274.72C149.546 274.167 149.193 273.729 148.951 273.424C148.83 273.272 148.738 273.153 148.673 273.069C148.641 273.027 148.616 272.994 148.598 272.971L148.576 272.942L148.57 272.933L148.567 272.93C148.566 272.928 148.565 272.927 150.965 271.127L148.565 272.927C147.571 271.602 147.84 269.721 149.165 268.727ZM164.324 174.335C164.324 171.021 167.01 168.335 170.324 168.335H170.526C173.839 168.335 176.526 171.021 176.526 174.335C176.526 177.648 173.839 180.335 170.526 180.335H170.324C167.01 180.335 164.324 177.648 164.324 174.335ZM286.473 168.335C283.16 168.335 280.473 171.021 280.473 174.335C280.473 177.648 283.16 180.335 286.473 180.335H286.675C289.989 180.335 292.675 177.648 292.675 174.335C292.675 171.021 289.989 168.335 286.675 168.335H286.473Z" fill="url(#paint0_linear)"/>
<defs>
<linearGradient id="paint0_linear" x1="29.5282" y1="38.7058" x2="462.972" y2="404.717" gradientUnits="userSpaceOnUse">
<stop stop-color="#FF7A00"/>
<stop offset="1" stop-color="#DB00FF"/>
</linearGradient>
</defs>
</svg>
