<svg width="316" height="316" viewBox="0 0 316 316" fill="none" xmlns="http://www.w3.org/2000/svg">
<path fill-rule="evenodd" clip-rule="evenodd" d="M52.666 51.1665C51.8376 51.1665 51.166 51.8381 51.166 52.6665C51.166 53.4949 51.8376 54.1665 52.666 54.1665H144.833C158.403 54.1665 171.417 59.5573 181.013 69.1529C190.609 78.7485 195.999 91.7629 195.999 105.333V259.712L132.727 196.439C132.141 195.854 131.191 195.854 130.605 196.439C130.02 197.025 130.02 197.975 130.605 198.561L196.439 264.394C196.617 264.572 196.828 264.696 197.053 264.766C197.175 264.804 197.304 264.826 197.437 264.832C197.483 264.834 197.53 264.834 197.577 264.831C197.749 264.822 197.914 264.784 198.067 264.722C198.246 264.649 198.414 264.54 198.56 264.394L264.393 198.561C264.979 197.975 264.979 197.025 264.393 196.439C263.808 195.854 262.858 195.854 262.272 196.439L198.999 259.712V105.333C198.999 90.9673 193.293 77.1898 183.134 67.0316C172.976 56.8733 159.199 51.1665 144.833 51.1665H52.666Z" fill="url(#paint0_linear)"/>
<defs>
<linearGradient id="paint0_linear" x1="49.9241" y1="52.7319" x2="285.477" y2="251.64" gradientUnits="userSpaceOnUse">
<stop stop-color="#FF7A00"/>
<stop offset="1" stop-color="#DB00FF"/>
</linearGradient>
</defs>
</svg>
