<svg width="80" height="80" viewBox="0 0 80 80" fill="none" xmlns="http://www.w3.org/2000/svg">
<path fill-rule="evenodd" clip-rule="evenodd" d="M23.3337 8.29102C15.0264 8.29102 8.29199 15.0254 8.29199 23.3327V56.666C8.29199 64.9733 15.0264 71.7077 23.3337 71.7077H56.667C64.9743 71.7077 71.7087 64.9733 71.7087 56.666V23.3327C71.7087 15.0254 64.9743 8.29102 56.667 8.29102H23.3337ZM5.04199 23.3327C5.04199 13.2305 13.2315 5.04102 23.3337 5.04102H56.667C66.7692 5.04102 74.9587 13.2305 74.9587 23.3327V56.666C74.9587 66.7682 66.7692 74.9577 56.667 74.9577H23.3337C13.2315 74.9577 5.04199 66.7682 5.04199 56.666V23.3327ZM41.8626 28.2736C39.4266 27.9124 36.9386 28.3285 34.7527 29.4627C32.5667 30.597 30.7941 32.3916 29.6869 34.5914C28.5797 36.7911 28.1943 39.284 28.5856 41.7154C28.9768 44.1468 30.1248 46.393 31.8662 48.1344C33.6075 49.8758 35.8537 51.0237 38.2851 51.415C40.7165 51.8062 43.2094 51.4208 45.4091 50.3136C47.6089 49.2064 49.4035 47.4338 50.5378 45.2478C51.672 43.0619 52.0881 40.574 51.7269 38.1379C51.3584 35.653 50.2005 33.3526 48.4242 31.5763C46.648 29.8 44.3475 28.6421 41.8626 28.2736ZM33.2558 26.578C36.0485 25.1289 39.2271 24.5973 42.3393 25.0588C45.514 25.5295 48.453 27.0088 50.7223 29.2782C52.9917 31.5475 54.471 34.4866 54.9417 37.6612C55.4032 40.7734 54.8717 43.952 53.4226 46.7447C51.9735 49.5374 49.6807 51.8021 46.8703 53.2166C44.0599 54.6312 40.8751 55.1235 37.7688 54.6237C34.6624 54.1238 31.7928 52.6572 29.5681 50.4325C27.3433 48.2077 25.8767 45.3381 25.3768 42.2318C24.877 39.1254 25.3694 35.9406 26.7839 33.1302C28.1984 30.3198 30.4631 28.027 33.2558 26.578ZM58.3331 20.0409C57.4357 20.0409 56.7081 20.7684 56.7081 21.6659C56.7081 22.5633 57.4357 23.2909 58.3331 23.2909H58.3666C59.2641 23.2909 59.9916 22.5633 59.9916 21.6659C59.9916 20.7684 59.2641 20.0409 58.3666 20.0409H58.3331Z" fill="black"/>
<path fill-rule="evenodd" clip-rule="evenodd" d="M23.3337 8.29102C15.0264 8.29102 8.29199 15.0254 8.29199 23.3327V56.666C8.29199 64.9733 15.0264 71.7077 23.3337 71.7077H56.667C64.9743 71.7077 71.7087 64.9733 71.7087 56.666V23.3327C71.7087 15.0254 64.9743 8.29102 56.667 8.29102H23.3337ZM5.04199 23.3327C5.04199 13.2305 13.2315 5.04102 23.3337 5.04102H56.667C66.7692 5.04102 74.9587 13.2305 74.9587 23.3327V56.666C74.9587 66.7682 66.7692 74.9577 56.667 74.9577H23.3337C13.2315 74.9577 5.04199 66.7682 5.04199 56.666V23.3327ZM41.8626 28.2736C39.4266 27.9124 36.9386 28.3285 34.7527 29.4627C32.5667 30.597 30.7941 32.3916 29.6869 34.5914C28.5797 36.7911 28.1943 39.284 28.5856 41.7154C28.9768 44.1468 30.1248 46.393 31.8662 48.1344C33.6075 49.8758 35.8537 51.0237 38.2851 51.415C40.7165 51.8062 43.2094 51.4208 45.4091 50.3136C47.6089 49.2064 49.4035 47.4338 50.5378 45.2478C51.672 43.0619 52.0881 40.574 51.7269 38.1379C51.3584 35.653 50.2005 33.3526 48.4242 31.5763C46.648 29.8 44.3475 28.6421 41.8626 28.2736ZM33.2558 26.578C36.0485 25.1289 39.2271 24.5973 42.3393 25.0588C45.514 25.5295 48.453 27.0088 50.7223 29.2782C52.9917 31.5475 54.471 34.4866 54.9417 37.6612C55.4032 40.7734 54.8717 43.952 53.4226 46.7447C51.9735 49.5374 49.6807 51.8021 46.8703 53.2166C44.0599 54.6312 40.8751 55.1235 37.7688 54.6237C34.6624 54.1238 31.7928 52.6572 29.5681 50.4325C27.3433 48.2077 25.8767 45.3381 25.3768 42.2318C24.877 39.1254 25.3694 35.9406 26.7839 33.1302C28.1984 30.3198 30.4631 28.027 33.2558 26.578ZM58.3331 20.0409C57.4357 20.0409 56.7081 20.7684 56.7081 21.6659C56.7081 22.5633 57.4357 23.2909 58.3331 23.2909H58.3666C59.2641 23.2909 59.9916 22.5633 59.9916 21.6659C59.9916 20.7684 59.2641 20.0409 58.3666 20.0409H58.3331Z" fill="url(#paint0_linear)"/>
<defs>
<linearGradient id="paint0_linear" x1="4.6356" y1="5.55326" x2="81.7141" y2="70.6405" gradientUnits="userSpaceOnUse">
<stop stop-color="#FF7A00"/>
<stop offset="1" stop-color="#DB00FF"/>
</linearGradient>
</defs>
</svg>
