<svg width="80" height="80" viewBox="0 0 80 80" fill="none" xmlns="http://www.w3.org/2000/svg">
<path d="M76.6673 9.99983C73.4752 12.2514 69.941 13.9735 66.2006 15.0998C64.1931 12.7915 61.5251 11.1555 58.5574 10.4129C55.5897 9.67036 52.4656 9.85715 49.6076 10.948C46.7495 12.0389 44.2954 13.9812 42.5772 16.5122C40.859 19.0433 39.9596 22.041 40.0006 25.0998V28.4332C34.1428 28.5851 28.3382 27.2859 23.104 24.6513C17.8698 22.0168 13.3684 18.1286 10.0006 13.3332C10.0006 13.3332 -3.33268 43.3332 26.6673 56.6665C19.8024 61.3264 11.6245 63.6629 3.33398 63.3332C33.334 79.9998 70.0006 63.3332 70.0006 24.9998C69.9976 24.0713 69.9083 23.1451 69.734 22.2332C73.136 18.8781 75.5367 14.6422 76.6673 9.99983V9.99983Z" stroke="black" stroke-width="4" stroke-linecap="round" stroke-linejoin="round"/>
<path d="M76.6673 9.99983C73.4752 12.2514 69.941 13.9735 66.2006 15.0998C64.1931 12.7915 61.5251 11.1555 58.5574 10.4129C55.5897 9.67036 52.4656 9.85715 49.6076 10.948C46.7495 12.0389 44.2954 13.9812 42.5772 16.5122C40.859 19.0433 39.9596 22.041 40.0006 25.0998V28.4332C34.1428 28.5851 28.3382 27.2859 23.104 24.6513C17.8698 22.0168 13.3684 18.1286 10.0006 13.3332C10.0006 13.3332 -3.33268 43.3332 26.6673 56.6665C19.8024 61.3264 11.6245 63.6629 3.33398 63.3332C33.334 79.9998 70.0006 63.3332 70.0006 24.9998C69.9976 24.0713 69.9083 23.1451 69.734 22.2332C73.136 18.8781 75.5367 14.6422 76.6673 9.99983V9.99983Z" stroke="url(#paint0_linear)" stroke-width="4" stroke-linecap="round" stroke-linejoin="round"/>
<defs>
<linearGradient id="paint0_linear" x1="2.90773" y1="10.4045" x2="69.7515" y2="79.609" gradientUnits="userSpaceOnUse">
<stop stop-color="#FF7A00"/>
<stop offset="1" stop-color="#DB00FF"/>
</linearGradient>
</defs>
</svg>
