<svg width="92" height="66" viewBox="0 0 92 66" fill="none" xmlns="http://www.w3.org/2000/svg">
<path fill-rule="evenodd" clip-rule="evenodd" d="M45.8484 1.5C45.8484 0 45.8483 0 45.848 0H45.847H45.843L45.8275 7.27177e-06L45.767 5.74589e-05L45.5319 0.000456452C45.3259 0.000911713 45.0233 0.0018214 44.636 0.00363851C43.8615 0.00727272 42.7479 0.0145377 41.3902 0.029062C38.6754 0.058104 34.9816 0.1162 31.0689 0.232471C27.1585 0.348671 23.0173 0.523314 19.4113 0.786331C15.8473 1.04629 12.6793 1.4002 10.7903 1.9054L10.7695 1.91113C8.61764 2.51992 6.66458 3.68579 5.10754 5.29098C3.55051 6.89617 2.44465 8.88383 1.90167 11.0532C1.89355 11.0856 1.88652 11.1183 1.88059 11.1512C0.595759 18.2759 -0.0329751 25.5034 0.00228163 32.7429C-0.0429989 40.0369 0.585779 47.3195 1.8806 54.4978C1.88939 54.5466 1.90058 54.5948 1.91414 54.6424C2.51276 56.7444 3.64339 58.6564 5.1968 60.1938C6.75021 61.7312 8.67388 62.842 10.7819 63.4188L10.7903 63.4211C12.6793 63.9263 15.8473 64.2802 19.4113 64.5401C23.0173 64.8031 27.1585 64.9778 31.0689 65.094C34.9816 65.2103 38.6754 65.2683 41.3902 65.2974C42.7479 65.3119 43.8615 65.3192 44.636 65.3228C45.0233 65.3246 45.3259 65.3255 45.5319 65.326L45.767 65.3264L45.8275 65.3264L45.843 65.3265H45.847H45.848C45.8483 65.3265 45.8484 65.3265 45.8484 63.8265C45.8484 65.3265 45.8486 65.3265 45.8488 65.3265H45.8499H45.8539L45.8693 65.3264L45.9298 65.3264L46.1649 65.326C46.3709 65.3255 46.6735 65.3246 47.0608 65.3228C47.8354 65.3192 48.9489 65.3119 50.3066 65.2974C53.0214 65.2683 56.7152 65.2103 60.628 65.094C64.5384 64.9778 68.6795 64.8031 72.2855 64.5401C75.8496 64.2802 79.0176 63.9263 80.9066 63.4211L80.9274 63.4153C83.0792 62.8065 85.0323 61.6407 86.5893 60.0355C88.1463 58.4303 89.2522 56.4426 89.7952 54.2733C89.8033 54.2408 89.8103 54.2081 89.8163 54.1752C91.0912 47.1038 91.7199 39.931 91.6945 32.7456C91.7399 25.4513 91.1111 18.1684 89.8162 10.9899L88.3401 11.2561L89.7952 10.8919C89.2522 8.72257 88.1463 6.73491 86.5893 5.12972C85.0323 3.52453 83.0792 2.35866 80.9274 1.74987C80.9099 1.74494 80.8924 1.74033 80.8748 1.73603C78.9977 1.27766 75.8406 0.955026 72.2761 0.717641C68.6727 0.47767 64.5336 0.318276 60.6241 0.212204C56.7124 0.106072 53.0195 0.0530396 50.3052 0.0265281C48.9478 0.0132697 47.8345 0.00663805 47.0602 0.00332081C46.673 0.00166214 46.3705 0.000831962 46.1646 0.000416398L45.9297 5.24521e-05L45.8693 6.67572e-06L45.8538 0H45.8499H45.8488C45.8486 0 45.8484 0 45.8484 1.5ZM45.8484 1.5C45.8484 3 45.8484 3 45.8482 3H45.8473L45.8438 3L45.8291 3.00001L45.7702 3.00006L45.5385 3.00045C45.3349 3.0009 45.0348 3.0018 44.6501 3.00361C43.8807 3.00722 42.7732 3.01444 41.4223 3.02889C38.7198 3.0578 35.0461 3.11561 31.158 3.23115C27.2675 3.34676 23.1744 3.51983 19.6296 3.77838C16.0507 4.03942 13.1562 4.38001 11.5758 4.80077C9.93607 5.26664 8.44786 6.1561 7.26092 7.37975C6.08273 8.59438 5.24272 10.0957 4.82379 11.7346C3.57721 18.6649 2.96749 25.6949 3.00229 32.7364L3.00227 32.7533C2.95778 39.8397 3.56605 46.9151 4.81936 53.8898C5.28157 55.4683 6.13746 56.904 7.3071 58.0616C8.49275 59.235 9.96076 60.0831 11.5695 60.524C13.1485 60.9455 16.0459 61.2867 19.6296 61.5481C23.1744 61.8066 27.2675 61.9797 31.158 62.0953C35.0461 62.2108 38.7198 62.2687 41.4223 62.2976C42.7732 62.312 43.8807 62.3192 44.6501 62.3228C45.0348 62.3247 45.3349 62.3256 45.5385 62.326L45.7702 62.3264L45.8291 62.3264L45.8438 62.3265H45.8473H45.8482C45.8484 62.3265 45.8484 62.3265 45.8484 63.8265C45.8484 62.3265 45.8485 62.3265 45.8486 62.3265H45.8495H45.8531L45.8677 62.3264L45.9266 62.3264L46.1583 62.326C46.362 62.3256 46.6621 62.3247 47.0467 62.3228C47.8161 62.3192 48.9236 62.312 50.2745 62.2976C52.977 62.2687 56.6508 62.2108 60.5389 62.0953C64.4294 61.9797 68.5225 61.8066 72.0673 61.5481C75.6462 61.287 78.5408 60.9464 80.1211 60.5257C81.7608 60.0598 83.249 59.1703 84.4359 57.9467C85.6141 56.7321 86.4541 55.2308 86.873 53.5919C88.11 46.7139 88.7197 39.7377 88.6945 32.7492L88.6946 32.7344C88.7391 25.6397 88.1293 18.556 86.873 11.5733C86.4541 9.93438 85.6141 8.4331 84.4359 7.21849C83.2528 5.99874 81.7702 5.11105 80.1367 4.64397C78.5411 4.25871 75.6432 3.94852 72.0767 3.71101C68.5293 3.47476 64.4341 3.31668 60.5427 3.2111C56.6536 3.10558 52.9789 3.05279 50.2759 3.02638C48.9247 3.01319 47.8169 3.00659 47.0473 3.00329C46.6626 3.00165 46.3624 3.00082 46.1586 3.00041L45.9267 3.00005L45.8678 3.00001L45.8531 3L45.8495 3H45.8486C45.8485 3 45.8484 3 45.8484 1.5ZM37.5195 18.2571C37.0551 17.993 36.4854 17.9958 36.0237 18.2644C35.562 18.533 35.278 19.0268 35.278 19.561V45.9268C35.278 46.4609 35.562 46.9548 36.0237 47.2233C36.4854 47.4919 37.0551 47.4947 37.5195 47.2307L60.7004 34.0478C61.1693 33.7811 61.4589 33.2832 61.4589 32.7439C61.4589 32.2045 61.1693 31.7066 60.7004 31.44L37.5195 18.2571ZM56.9246 32.7439L38.278 43.3481V22.1396L56.9246 32.7439Z" fill="url(#paint0_linear)"/>
<defs>
<linearGradient id="paint0_linear" x1="-0.532991" y1="0.478618" x2="71.4742" y2="85.8287" gradientUnits="userSpaceOnUse">
<stop stop-color="#FF7A00"/>
<stop offset="1" stop-color="#DB00FF"/>
</linearGradient>
</defs>
</svg>
